<svg xmlns="http://www.w3.org/2000/svg" viewBox="0 0 512 512">
  <defs>
    <linearGradient id="bg" x1="0%" y1="0%" x2="100%" y2="100%">
      <stop offset="0%" style="stop-color:#7c3aed"/>
      <stop offset="100%" style="stop-color:#6d28d9"/>
    </linearGradient>
  </defs>
  <rect width="512" height="512" rx="96" fill="url(#bg)"/>
  <!-- QR Code pattern -->
  <g fill="#fff">
    <!-- Top-left finder -->
    <rect x="80" y="80" width="100" height="100" rx="12"/>
    <rect x="96" y="96" width="68" height="68" rx="8" fill="#7c3aed"/>
    <rect x="112" y="112" width="36" height="36" rx="4" fill="#fff"/>

    <!-- Top-right finder -->
    <rect x="332" y="80" width="100" height="100" rx="12"/>
    <rect x="348" y="96" width="68" height="68" rx="8" fill="#7c3aed"/>
    <rect x="364" y="112" width="36" height="36" rx="4" fill="#fff"/>

    <!-- Bottom-left finder -->
    <rect x="80" y="332" width="100" height="100" rx="12"/>
    <rect x="96" y="348" width="68" height="68" rx="8" fill="#7c3aed"/>
    <rect x="112" y="364" width="36" height="36" rx="4" fill="#fff"/>

    <!-- Data modules -->
    <rect x="200" y="80" width="32" height="32" rx="6"/>
    <rect x="248" y="80" width="32" height="32" rx="6"/>
    <rect x="200" y="128" width="32" height="32" rx="6"/>
    <rect x="280" y="128" width="32" height="32" rx="6"/>

    <rect x="80" y="200" width="32" height="32" rx="6"/>
    <rect x="128" y="200" width="32" height="32" rx="6"/>
    <rect x="80" y="248" width="32" height="32" rx="6"/>
    <rect x="160" y="248" width="32" height="32" rx="6"/>

    <rect x="200" y="200" width="112" height="112" rx="16"/>
    <rect x="216" y="216" width="80" height="80" rx="12" fill="#7c3aed"/>
    <rect x="240" y="240" width="32" height="32" rx="8" fill="#fff"/>

    <rect x="332" y="200" width="32" height="32" rx="6"/>
    <rect x="400" y="200" width="32" height="32" rx="6"/>
    <rect x="364" y="248" width="32" height="32" rx="6"/>
    <rect x="400" y="280" width="32" height="32" rx="6"/>

    <rect x="200" y="332" width="32" height="32" rx="6"/>
    <rect x="248" y="364" width="32" height="32" rx="6"/>
    <rect x="200" y="400" width="32" height="32" rx="6"/>
    <rect x="280" y="400" width="32" height="32" rx="6"/>

    <rect x="332" y="332" width="32" height="32" rx="6"/>
    <rect x="400" y="332" width="32" height="32" rx="6"/>
    <rect x="332" y="400" width="100" height="32" rx="6"/>
  </g>
</svg>
